<?xml version="1.0" encoding="UTF-8" standalone="no"?>
<svg
   id="Warstwa_1"
   data-name="Warstwa 1"
   viewBox="0 0 66.19296 64.064056"
   version="1.1"
   sodipodi:docname="behance.svg"
   width="66.192963"
   height="64.064056"
   inkscape:version="1.2.2 (b0a8486541, 2022-12-01)"
   xmlns:inkscape="http://www.inkscape.org/namespaces/inkscape"
   xmlns:sodipodi="http://sodipodi.sourceforge.net/DTD/sodipodi-0.dtd"
   xmlns="http://www.w3.org/2000/svg"
   xmlns:svg="http://www.w3.org/2000/svg">
  <sodipodi:namedview
     id="namedview15"
     pagecolor="#ffffff"
     bordercolor="#000000"
     borderopacity="0.25"
     inkscape:showpageshadow="2"
     inkscape:pageopacity="0.0"
     inkscape:pagecheckerboard="0"
     inkscape:deskcolor="#d1d1d1"
     showgrid="false"
     inkscape:zoom="1.7833333"
     inkscape:cx="144.39252"
     inkscape:cy="-48.504673"
     inkscape:window-width="1920"
     inkscape:window-height="1011"
     inkscape:window-x="0"
     inkscape:window-y="43"
     inkscape:window-maximized="1"
     inkscape:current-layer="Warstwa_1" />
  <defs
     id="defs4">
    <style
       id="style2">
      .cls-1 {
        fill: #173949;
      }
    </style>
  </defs>
  <path
     class="cls-1"
     d="m 64.182187,57.052321 c -2.06,4.21 -6.18,6.69 -11.13,6.84 -14.69,0.46 -28.42,-0.09 -44.0199996,-0.64 -6.35,-0.22 -8.02,-6.56 -8.48000002,-12.52 -1.11,-14.51 -0.25,-28.4 0.03,-43.0899996 0.09,-4.78 3.69000002,-7.67 7.87000002,-7.49 11.4099996,0.48 23.0499996,0.4 34.5499996,0.43 4.51,0.01 15.26,-1.86 18.23,1.05 1.84,1.8 4.92,1.04 4.96,16.0999996 0.02,6.35 -0.35,29.33 -0.89,34.9 -0.15,1.5 -0.44,3.05 -1.11,4.41 z m -40.11,-27.11 c 2.48,-0.68 6.49,-1.71 7.35,-4.4 1.93,-6.08 -3.9,-9.3 -8.64,-10.8 -4.15,-1.31 -9.11,-2.2 -15.3699996,-0.88 0.06,3.62 -0.38,7.95 -0.59,11.52 -0.32,5.33 -0.41,10.98 -0.5,16.28 -0.11,6.71 0,8.34 6.9799996,8.89 9.11,0.71 28.15,-5.94 18.41,-16.02 -1.55,-1.6 -7.63,-4.59 -7.63,-4.59 z m 17.01,-8.16 c 3.2,0.48 12.94,0 12.94,0 0.35,0 1.46,-1.51 1.24,-2.15 -0.02,-0.87 -0.57,-0.97 -1.2,-1.26 -1.16,-0.54 -11.21,-0.68 -12.4,-0.33 -1.64,0.48 -1.78,3.56 -0.58,3.74 z m 16.88,7.33 c -1.38,-1.76 -6,-3.46 -8.24,-3.52 -10.28,-0.27 -15.63,11.52 -9.13,19.23 3.99,4.73 12.79,5.3 16.98,0.65 0.77,-0.85 2.63,-3.44 0.72,-4 -1.48,-0.43 -3.7,2.54 -5.37,3.19 -4.19,1.62 -10.57,0 -10.64,-5.13 1.84,-0.37 4.56,-0.68 6.27,-1.17 1.79,-0.52 7.36,-2.4 8.58,-3.41 1.75,-1.44 2.28,-4 0.84,-5.84 z"
     id="path6" />
  <path
     class="cls-1"
     d="m 28.282187,24.332321 c -0.35,3.81 -16.19,2.61 -17.91,2.71 -0.22,-3.51 0.36,-9.28 0.27,-11.02 4.45,0.25 18.26,1.47 17.64,8.3 z"
     id="path8" />
  <path
     class="cls-1"
     d="m 41.802187,36.172321 c 0.34,-6.85 8.81,-9.73 13.03,-4.19 z"
     id="path10" />
  <path
     class="cls-1"
     d="m 29.582187,40.552321 c -0.57,6.71 -17.71,5.39 -19.43,5.49 -0.2199996,-3.51 0.58,-12.73 0.49,-14.47 4.45,0.25 19.52,2.14 18.94,8.98 z"
     id="path12" />
</svg>
