<?xml version="1.0" encoding="UTF-8" standalone="no"?>
<svg
   id="Warstwa_1"
   data-name="Warstwa 1"
   viewBox="0 0 62.767416 64.592155"
   version="1.1"
   sodipodi:docname="instagram.svg"
   width="62.767418"
   height="64.592155"
   inkscape:version="1.2.2 (b0a8486541, 2022-12-01)"
   xmlns:inkscape="http://www.inkscape.org/namespaces/inkscape"
   xmlns:sodipodi="http://sodipodi.sourceforge.net/DTD/sodipodi-0.dtd"
   xmlns="http://www.w3.org/2000/svg"
   xmlns:svg="http://www.w3.org/2000/svg">
  <sodipodi:namedview
     id="namedview13"
     pagecolor="#ffffff"
     bordercolor="#000000"
     borderopacity="0.25"
     inkscape:showpageshadow="2"
     inkscape:pageopacity="0.0"
     inkscape:pagecheckerboard="0"
     inkscape:deskcolor="#d1d1d1"
     showgrid="false"
     inkscape:zoom="1.7833333"
     inkscape:cx="142.14953"
     inkscape:cy="-134.85981"
     inkscape:window-width="1920"
     inkscape:window-height="1011"
     inkscape:window-x="0"
     inkscape:window-y="43"
     inkscape:window-maximized="1"
     inkscape:current-layer="Warstwa_1" />
  <defs
     id="defs4">
    <style
       id="style2">
      .cls-1 {
        fill: #173949;
      }
    </style>
  </defs>
  <path
     class="cls-1"
     d="m 59.63,61.301597 c -1.73,1.52 -4.48,2.44 -6.76,2.71 -7.87,0.95 -17.09,0.49 -24.93,0.31 -5.17,-0.12 -16.13,0.19 -20.51,-0.09 -3.56,-0.23 -7.27,-2.27 -7.27,-11.33 0,-8.1 -0.36,-24.97 0,-33.61 0.15,-3.68 -0.76,-11.5099998 0.76,-14.5199998 1.15,-2.3 3.77,-4.47000005 6.38,-4.69000005 1.49,-0.12 4.28,0.08 6.22,0.02 10.36,-0.3 20.74,0.23 31.09,0.31 4.64,0.04 11.89,-1.66999995 15.45,1.60000005 4.01,3.68 2.06,7.57 2.24,12.5499998 0.45,13.05 0.86,24.75 -0.21,39.74 -0.25,3.56 -0.31,5.11 -2.46,6.99 z m -42.61,-49.98 c -3.7,0.82 -6.23,2.71 -6.39,6.34 -0.05,1.06 0.01,4.62 0,5.76 -0.08,6.43 -0.16,18.78 0.66,25.78 0.84,7.11 7.98,5 13.68,5.28 2.55,0.12 20.36,1.17 24.73,-1.89 1.89,-1.32 3.21,-2.88 3.42,-5.21 0.64,-7 1.12,-20.97 0.33,-27.83 -0.22,-1.88 0.91,-4.95 -3.29,-8.06 -2.22,-1.6499998 -11.64,-1.01 -13.34,-1.07 -6.91,-0.23 -13.01,-0.6099998 -19.8,0.89 z"
     id="path6" />
  <path
     class="cls-1"
     d="m 51.22,19.481597 c 0.07,1.58 -0.71,16.65 -0.75,17.43 -0.11,2.22 0.17,2.5 -0.49,10.98 -0.17,2.13 -3.94,2.87 -4.12,2.88 -8.23,0.41 -28.82,2.06 -31.13,-0.82 -1.09,-1.36 -0.8,-7.66 -0.82,-9.31 -0.32,-18.78 -1.31,-20.02 0.82,-24.53 1.49,-3.15 4.77,-3.1 9.33,-3.09 1.75,0 17.77,-0.71 22.05,0 0.38,0.06 4.86,1.18 5.1,6.45 z m -10.47,2.51 c 1.8,2.08 6.83,-0.5 4.92,-3.72 -0.71,-1.19 -4.02,-1.12 -4.91,-0.36 -0.79,0.68 -0.61,3.38 0,4.08 z m -4.1,4.1 c -3.98,-2.46 -11.54,0.61 -12.29,5.4 -1.98,12.71 14.9,13.57 16.72,3.78 0.3,-1.63 -0.55,-5.27 -1.45,-6.64 -0.51,-0.78 -2.7,-2.37 -2.97,-2.54 z"
     id="path8" />
  <path
     class="cls-1"
     d="m 36.64,38.341597 c -4.19,2.38 -8.07,1.34 -9.29,-1.49 -1.22,-2.83 -0.44,-5.48 0.54,-7.03 1.27,-2.02 5.64,-3.09 8.48,-0.71 2.84,2.38 3.51,7.4 0.28,9.24 z"
     id="path10" />
</svg>
