<?xml version="1.0" encoding="UTF-8" standalone="no"?>
<svg
   id="Warstwa_1"
   data-name="Warstwa 1"
   viewBox="0 0 239.63734 45.997093"
   version="1.1"
   sodipodi:docname="kontakt.svg"
   width="239.63734"
   height="45.997093"
   inkscape:version="1.2.2 (b0a8486541, 2022-12-01)"
   xmlns:inkscape="http://www.inkscape.org/namespaces/inkscape"
   xmlns:sodipodi="http://sodipodi.sourceforge.net/DTD/sodipodi-0.dtd"
   xmlns="http://www.w3.org/2000/svg"
   xmlns:svg="http://www.w3.org/2000/svg">
  <sodipodi:namedview
     id="namedview21"
     pagecolor="#ffffff"
     bordercolor="#000000"
     borderopacity="0.25"
     inkscape:showpageshadow="2"
     inkscape:pageopacity="0.0"
     inkscape:pagecheckerboard="0"
     inkscape:deskcolor="#d1d1d1"
     showgrid="false"
     inkscape:zoom="1.7833333"
     inkscape:cx="141.58879"
     inkscape:cy="10.373832"
     inkscape:window-width="1920"
     inkscape:window-height="1011"
     inkscape:window-x="0"
     inkscape:window-y="43"
     inkscape:window-maximized="1"
     inkscape:current-layer="Warstwa_1" />
  <defs
     id="defs4">
    <style
       id="style2">
      .cls-1 {
        fill: #173949;
      }
    </style>
  </defs>
  <path
     class="cls-1"
     d="m 4.9621913,20.627092 5.9799997,-4.33 c 4.89,-4.48 9.76,-9.1700003 14.95,-13.3300003 1.6,-1.28 4.65,-3.77000002 4.4,0.06 -4.28,5 -9.52,9.0500003 -14.33,13.5100003 -0.77,0.72 -5.7,4.4 -6.1999997,6.48 4.7599997,1.05 8.3899997,4.36 11.4899997,7.93 1.17,1.35 5.31,7.72 6.25,8.15 1.91,0.88 4.11,-2.11 6.01,-1.54 2.33,0.69 0.82,3.2 -0.78,4.38 -3.98,2.94 -7.86,0.19 -10.5,-2.98 -2.85,-3.42 -4.4,-6.95 -8.16,-9.95 -2.19,-1.75 -6.4899997,-4.53 -9.1399997,-2.81 -0.49,5.66 -0.17,11.25 -1.42,16.97 -0.33,1.51 -2.21,0.54 -2.80000004,0.28 -1.55,-0.7 -0.09,-6.7 -0.07,-8.2 0.16,-9.77 0.04,-22.56 1.47000004,-32.0900003 0.3,-2.02 3.05,-3.61000002 3.24,-1.38 0.55,6.67 0.11,12.6300003 -0.39,18.8500003 z"
     id="path6" />
  <path
     class="cls-1"
     d="m 152.81219,3.6270917 c 3.64,4.63 4.15,13.5700003 4.58,19.3900003 0.57,0.65 7.51,-4.03 8.38,-4.8 0.87,-0.77 6.32,-7.74 6.03,-1.68 -0.22,4.48 -9.82,10.17 -13.85,11.35 0.18,2.93 0.07,6.39 -0.04,9.25 -0.04,1.17 0.84,9.96 -2.77,6.82 -2.41,-2.1 -0.23,-11.77 -1.11,-15.19 -4.95,1.19 -10.17,1.05 -14.85,-0.96 0,0 -1.91,10.98 -4.29,16.1 -0.18,0.38 -1.25,0.21 -1.67,0.16 -1.16,-0.13 -0.84,-3.01 -0.79,-4.06 0.13,-2.57 0.66,-5.9 1.11,-8.48 1.08,-6.15 6.35,-25.0800003 11.12,-28.6500003 2.98,-2.23000002 5.8,-2.24000002 8.14,0.74 z m 0.73,20.8200003 c 0.5,-0.47 -1.01,-11.97 -1.44,-13.61 -0.35,-1.3100003 -1.81,-5.4800003 -3.5,-5.0400003 -1.4,0.37 -4.54,6.2700003 -5.21,7.7700003 -1.34,3.01 -2.24,6.7 -3.22,9.87 4.08,2.37 8.93,1.46 13.37,1.01 z"
     id="path8" />
  <path
     class="cls-1"
     d="m 125.29219,4.8770917 c -0.06,1.19 -0.11,2.5 -0.16,3.66 -0.39,9.6000003 -1.49,19.6900003 -2.77,29.1300003 -0.23,1.68 -0.68,7.51 -2.58,7.51 -2.02,-0.57 -2.32,-2.8 -2.18,-4.59 l 3.38,-35.7100003 c -2.83,-0.76 -14.36,2.37 -14.26,-2.56 0.03,-1.63000002 2.17,-1.67000002 3.45,-1.77000002 6.12,-0.49 20.5,-0.7 26.23,0.17 2.47,0.37000002 3.95,3.71000002 2.32,3.80000002 -3.47,0.18 -13.43,0.37 -13.43,0.37 z"
     id="path10" />
  <path
     class="cls-1"
     d="m 225.52219,5.6970917 c -0.06,1.19 -0.11,2.5 -0.16,3.66 -0.39,9.6000003 -1.49,19.6900003 -2.77,29.1300003 -0.23,1.68 -0.68,7.51 -2.58,7.51 -2.02,-0.57 -2.32,-2.8 -2.18,-4.59 l 3.38,-35.7100003 c -2.83,-0.76 -14.36,2.37 -14.26,-2.56 0.03,-1.63 2.17,-1.67 3.45,-1.77 6.12,-0.49000002 20.5,-0.70000002 26.23,0.17 2.47,0.37 3.95,3.71 2.32,3.8 -3.47,0.18 -13.43,0.37 -13.43,0.37 z"
     id="path12" />
  <path
     class="cls-1"
     d="m 97.332191,36.807092 c 0,0 0.68,-20.06 2.919999,-35.2700003 0.27,-1.85000002 3.17,-2.32000002 2.97,0.72 -1.01,15.1200003 -0.98,27.4000003 -3.07,41.4500003 -1.919999,3.42 -4.319999,-0.97 -5.389999,-2.64 -2.9,-4.52 -5.54,-11.07 -8.07,-15.86 -3.03,-5.73 -6.35,-11.08 -8.78,-17.1700003 -0.27,0 -0.59,2.2100003 -0.64,2.7100003 -0.96,9.43 -0.32,23.64 -2.59,32.42 -0.35,1.34 -2.34,3.07 -2.54,1.32 -0.71,-6.34 0.34,-10.86 0.65,-16.14 0.42,-7.16 0.77,-13.87 1.51,-21.0300003 0.26,-2.5 -1.1,-6.90000002 2.24,-6.85000002 3.92,0.07 9.16,14.08000032 10.73,17.22000032 1.34,2.7 7.03,14.93 10.05,19.12 z"
     id="path14" />
  <path
     class="cls-1"
     d="m 63.502191,4.1370917 c 11.3,11.9000003 3.24,43.9000003 -16.24,39.5000003 -8.66,-1.95 -11.12,-13.41 -11.05,-21.19 0.03,-3.44 1.16,-6.77 0.98,-7.64 -0.1,-0.51 -0.96,-1.25 -1.42,-1.88 -2.93,-4.0100003 -5.28,-7.4600003 -2.55,-10.5000003 2.02,-2.26000002 3.43,5.55 6.01,8.2500003 0.58,-1.3100003 0.81,-1.7500003 1.43,-2.6400003 5.32,-7.70000002 15.62,-11.5 22.85,-3.9 z m 1.07,17.0500003 c 1.33,-16.6400003 -14.07,-24.4100003 -22.77,-8.13 4.97,6.54 14.67,10.32 22.77,8.13 z m -0.43,3.4 c -6.84,2.31 -14.05,-0.35 -20.06,-3.66 -1.38,-0.76 -2.31,-2.2 -3.9,-2.09 -0.39,4.18 -0.58,7.51 0.62,11.61 1.2,4.1 3.71,8.04 7.84,8.97 6.19,1.4 10.74,-3.14 13.3,-8.16 0.45,-0.88 2.63,-6.14 2.2,-6.66 z"
     id="path16" />
  <path
     class="cls-1"
     d="m 178.68219,20.927092 5.98,-4.33 c 4.89,-4.48 9.76,-9.1700003 14.95,-13.3300003 1.6,-1.28 4.65,-3.77000002 4.4,0.06 -4.28,5 -9.52,9.0500003 -14.33,13.5100003 -0.77,0.72 -5.7,4.4 -6.2,6.48 4.76,1.05 8.39,4.36 11.49,7.93 1.17,1.35 5.31,7.72 6.25,8.15 1.91,0.88 4.11,-2.11 6.01,-1.54 2.33,0.69 0.82,3.2 -0.78,4.38 -3.98,2.94 -7.86,0.19 -10.5,-2.98 -2.85,-3.42 -4.4,-6.95 -8.16,-9.95 -2.19,-1.75 -6.49,-4.53 -9.14,-2.81 -0.49,5.66 -0.17,11.25 -1.42,16.97 -0.33,1.51 -2.21,0.54 -2.8,0.28 -1.55,-0.7 -0.09,-6.7 -0.07,-8.2 0.16,-9.77 0.04,-22.56 1.47,-32.0900003 0.3,-2.02 3.05,-3.61000002 3.24,-1.38 0.55,6.67 0.11,12.6300003 -0.39,18.8500003 z"
     id="path18" />
</svg>
