<?xml version="1.0" encoding="UTF-8" standalone="no"?>
<svg
   id="Warstwa_1"
   data-name="Warstwa 1"
   viewBox="0 0 278.6164 392.27551"
   version="1.1"
   sodipodi:docname="menu.svg"
   width="278.61639"
   height="392.27551"
   inkscape:version="1.2.2 (b0a8486541, 2022-12-01)"
   xmlns:inkscape="http://www.inkscape.org/namespaces/inkscape"
   xmlns:sodipodi="http://sodipodi.sourceforge.net/DTD/sodipodi-0.dtd"
   xmlns="http://www.w3.org/2000/svg"
   xmlns:svg="http://www.w3.org/2000/svg">
  <sodipodi:namedview
     id="namedview87"
     pagecolor="#ffffff"
     bordercolor="#000000"
     borderopacity="0.25"
     inkscape:showpageshadow="2"
     inkscape:pageopacity="0.0"
     inkscape:pagecheckerboard="0"
     inkscape:deskcolor="#d1d1d1"
     showgrid="false"
     inkscape:zoom="2.1821148"
     inkscape:cx="139.54353"
     inkscape:cy="-23.600958"
     inkscape:window-width="1920"
     inkscape:window-height="1011"
     inkscape:window-x="0"
     inkscape:window-y="43"
     inkscape:window-maximized="1"
     inkscape:current-layer="Warstwa_1" />
  <defs
     id="defs4">
    <style
       id="style2">
      .cls-1 {
        fill: #173949;
      }
    </style>
  </defs>
  <g
     id="g16"
     transform="translate(0.00218738,-0.00504728)">
    <path
       class="cls-1"
       d="m 35.64,6.23 c 11.3,11.9 3.24,43.9 -16.24,39.5 C 10.74,43.78 8.28,32.32 8.35,24.54 8.38,21.1 9.51,17.77 9.33,16.9 9.23,16.39 8.37,15.65 7.91,15.02 4.98,11.01 2.63,7.56 5.36,4.52 c 2.02,-2.26 3.43,5.55 6.01,8.25 0.58,-1.31 0.81,-1.75 1.43,-2.64 5.32,-7.7 15.62,-11.5 22.85,-3.9 z m 1.07,17.04 C 38.05,6.64 22.64,-1.13 13.95,15.15 c 4.97,6.54 14.67,10.32 22.77,8.13 z m -0.43,3.41 c -6.84,2.31 -14.05,-0.35 -20.06,-3.66 -1.38,-0.76 -2.31,-2.2 -3.9,-2.09 -0.39,4.18 -0.58,7.51 0.62,11.61 1.2,4.1 3.71,8.04 7.84,8.97 6.19,1.4 10.74,-3.14 13.3,-8.16 0.45,-0.88 2.63,-6.14 2.2,-6.66 z"
       id="path6" />
    <path
       class="cls-1"
       d="m 85.33,5.96 c 3.03,-6.95 5.39,-8.61 6.51,0.4 0.69,5.54 0.62,11.18 1.02,16.72 0.2,2.66 2.45,20.75 0.89,21.28 -0.56,0.19 -2.08,0.36 -2.35,-0.16 -0.63,-1.17 -2.75,-24.62 -3.09,-30.95 -0.07,-1.3 -0.62,-0.66 -0.72,-0.47 -2.29,4.06 -4.26,13.43 -6.68,17.41 -0.64,1.06 -2.2,1.09 -3.19,0.37 -1.78,-1.31 -5.68,-16.43 -7.38,-19.22 0,0 -2.1,16.87 -4.34,32.51 -0.26,1.79 -3.21,-0.21 -3.32,-2.17 -0.08,-1.41 0.33,-3.45 0.47,-5.16 0.49,-6.18 1.61,-12.65 2.26,-18.84 0.44,-4.16 0.3,-10.12 1.19,-14.16 0.36,-1.62 2.24,-3.35 3.71,-2.01 0.47,0.43 1.66,2.54 2.03,3.26 2.87,5.6 4.22,12.33 6.86,18.06"
       id="path8" />
    <path
       class="cls-1"
       d="m 125.2,36.75 c 0,0 0.68,-20.06 2.92,-35.27 0.27,-1.85 3.17,-2.32 2.97,0.72 -1.01,15.12 -0.98,27.4 -3.07,41.45 -1.92,3.42 -4.32,-0.97 -5.39,-2.64 -2.9,-4.52 -5.54,-11.07 -8.07,-15.86 -3.03,-5.73 -6.35,-11.08 -8.78,-17.17 -0.27,0 -0.59,2.21 -0.64,2.71 -0.96,9.43 -0.32,23.64 -2.59,32.42 -0.35,1.34 -2.34,3.07 -2.54,1.32 -0.71,-6.34 0.34,-10.86 0.65,-16.14 0.42,-7.16 0.77,-13.87 1.51,-21.03 0.26,-2.5 -1.1,-6.9 2.24,-6.85 3.92,0.07 9.16,14.08 10.73,17.22 1.34,2.7 7.03,14.93 10.05,19.12 z"
       id="path10" />
    <path
       class="cls-1"
       d="m 168.98,5.97 c -10.35,0.66 -21.11,0.9 -21.11,0.9 l -0.61,16.45 c 5.94,0.4 15.82,-1.84 15.83,1.2 0,0.55 -0.33,0.89 -0.71,1.22 -1.92,1.65 -12.55,1.06 -15.6,1.41 l -0.89,13.46 c 5.49,0.15 10.97,-0.12 16.41,0.51 2.77,0.32 5.16,3.12 2.45,3.31 -4.7,0.32 -21.44,0.97 -22.17,-0.51 -0.56,-1.14 0.76,-12.56 0.8,-14.3 0.25,-10.4 0.38,-12.84 1.04,-23.27 0.1,-1.62 0.52,-2.6 2.22,-3.05 4.17,-1.11 15.9,-0.96 20.52,-0.61 3.59,0.27 2.74,3.23 1.81,3.29 z"
       id="path12" />
    <path
       class="cls-1"
       d="m 137.18,44.42 c -0.12,1.49 -2,0.77 -2.62,0.44 -0.71,-0.38 -0.27,-6.83 -0.25,-8.36 0.16,-9.77 1.53,-33.23 1.61,-33.86 0.16,-1.36 3.17,-2.35 3.1,0.39 -0.12,4.8 -0.54,18.39 -0.59,19.75 -0.28,7.16 -0.24,8.63 -1.25,21.65 z"
       id="path14" />
  </g>
  <g
     id="g24"
     transform="translate(0.00218738,-0.00504728)">
    <path
       class="cls-1"
       d="m 61.76,388.99 c -1.73,1.52 -4.48,2.44 -6.76,2.71 -7.87,0.95 -17.09,0.49 -24.93,0.31 C 24.9,391.89 13.94,392.2 9.56,391.92 6,391.69 2.29,389.65 2.29,380.59 c 0,-8.1 -0.36,-24.97 0,-33.61 0.15,-3.68 -0.76,-11.51 0.76,-14.52 1.15,-2.3 3.77,-4.47 6.38,-4.69 1.49,-0.12 4.28,0.08 6.22,0.02 10.36,-0.3 20.74,0.23 31.09,0.31 4.64,0.04 11.89,-1.67 15.45,1.6 4.01,3.68 2.06,7.57 2.24,12.55 0.45,13.05 0.86,24.75 -0.21,39.74 -0.25,3.56 -0.31,5.11 -2.46,6.99 z M 19.14,339.01 c -3.7,0.82 -6.23,2.71 -6.39,6.34 -0.05,1.06 0.01,4.62 0,5.76 -0.08,6.43 -0.16,18.78 0.66,25.78 0.82,7 7.98,5 13.68,5.28 2.55,0.12 20.36,1.17 24.73,-1.89 1.89,-1.32 3.21,-2.88 3.42,-5.21 0.64,-7 1.12,-20.97 0.33,-27.83 -0.22,-1.88 0.91,-4.95 -3.29,-8.06 -2.22,-1.65 -11.64,-1.01 -13.34,-1.07 -6.91,-0.23 -13.01,-0.61 -19.8,0.89 z"
       id="path18" />
    <path
       class="cls-1"
       d="m 53.35,347.17 c 0.07,1.58 -0.71,16.65 -0.75,17.43 -0.11,2.22 0.17,2.5 -0.49,10.98 -0.17,2.13 -3.94,2.87 -4.12,2.88 -8.23,0.41 -28.82,2.06 -31.13,-0.82 -1.09,-1.36 -0.8,-7.66 -0.82,-9.31 -0.32,-18.78 -1.31,-20.02 0.82,-24.53 1.49,-3.15 4.77,-3.1 9.33,-3.09 1.75,0 17.77,-0.71 22.05,0 0.38,0.06 4.86,1.18 5.1,6.45 z m -10.48,2.51 c 1.8,2.08 6.83,-0.5 4.92,-3.72 -0.71,-1.19 -4.02,-1.12 -4.91,-0.36 -0.79,0.68 -0.61,3.38 0,4.08 z m -4.09,4.1 c -3.98,-2.46 -11.54,0.61 -12.29,5.4 -1.98,12.71 14.9,13.57 16.72,3.78 0.3,-1.63 -0.55,-5.27 -1.45,-6.64 -0.51,-0.78 -2.7,-2.37 -2.97,-2.54 z"
       id="path20" />
    <path
       class="cls-1"
       d="m 38.76,366.02 c -4.19,2.38 -8.07,1.34 -9.29,-1.49 -1.22,-2.83 -0.44,-5.48 0.54,-7.03 1.27,-2.02 5.64,-3.09 8.48,-0.71 2.84,2.38 3.51,7.4 0.28,9.24 z"
       id="path22" />
  </g>
  <g
     id="g44"
     transform="translate(0.00218738,-0.00504728)">
    <path
       class="cls-1"
       d="m 108.38,99.13 c 1.32,0.93 -0.21,3.63 -1.42,4.48 -1.29,0.9 -4.62,1.66 -5.02,1.69 -7.74,0.55 -13.03,-10.59 -19.15,-13.88 -0.7,0.46 -0.66,0.92 -0.74,1.65 -0.4,3.68 -0.01,8.06 -0.67,11.8 -0.37,1.23 -1.93,1.99 -3.16,1.68 -1.52,-1.12 0.35,-13.58 -0.16,-16.04 0,0 -1.39,0.02 -1.65,0 -1.37,-0.11 -3.68,0.11 -3.86,-0.6 -0.88,-3.4 0.83,-3.88 3.53,-3.77 2.15,0.09 2.97,0.53 3.04,-0.31 l 1.49,-20.02 c 0,0 -8.02,0.36 -8.7,-0.99 -0.82,-1.65 -0.82,-3.02 5.17,-3.57 10.45,-0.96 27.96,3.82 24.03,17.33 -1.68,5.78 -8.68,8.97 -13.76,11.16 1.09,1.53 2.78,3.14 4.05,4.34 2.81,2.65 5.91,7.12 10.53,6.9 1.51,-0.07 5.55,-2.48 6.46,-1.84 z M 83.03,86.14 c 6.23,-1.02 15.86,-5.4 14.27,-13.08 -0.83,-4.03 -8.87,-7.37 -12.6,-7.55 -1.11,-0.05 -0.91,0.02 -0.98,0.67 -0.44,3.73 -0.65,7.5 -0.82,11.14 -0.14,2.89 -0.16,5.87 0.14,8.81 z"
       id="path26" />
    <path
       class="cls-1"
       d="m 15.04,90.06 -1.15,13.95 c -0.42,1.9 -3.43,3.48 -3.75,0.61 -0.51,-4.61 0.88,-9.87 0.52,-14.47 0,0 -7.29,-1.11 -5.3,-3.78 1.55,-2.07 5.91,1.15 6.24,-1.43 L 12.06,64.76 C 9.58,64.79 5.44,64.9 5.51,63.59 5.64,61.25 6.87,60.92 9.08,60.84 19.71,60.42 37.9,64.62 33.41,78.46 31.33,84.89 21.33,89.31 15.05,90.06 Z m -0.27,-4.48 c 6.23,-1.02 16.52,-5.32 14.93,-13 -0.83,-4.03 -8.87,-7.37 -12.6,-7.55 -1.11,-0.05 -1.87,-0.16 -1.92,0.49 -0.29,3.71 0.09,7.56 -0.08,11.2 -0.14,2.89 -0.05,5.81 -0.33,8.85 z"
       id="path28" />
    <path
       class="cls-1"
       d="m 163.79,63.95 c 0.27,0.43 0.43,1.55 0,2.03 -0.76,0.87 -20.85,1.46 -20.85,1.46 l -0.47,15.83 c 2.58,-0.03 2.78,-0.07 4.07,-0.09 2.14,-0.03 11.75,-1.74 11.76,1.29 0,0.55 -0.33,0.89 -0.71,1.22 -1.92,1.65 -12.55,1.06 -15.6,1.41 -0.13,4.32 -0.29,8.79 -0.64,13.1 -0.11,1.32 0.33,5.43 -1.52,6.26 -3.14,1.41 -1.81,-5.77 -1.77,-7.82 0.21,-10.3 0.33,-20.92 0.62,-32.53 0.04,-1.63 0.47,-2.85 2.22,-3.05 4.01,-0.46 16.21,-0.33 20.84,0 0.89,0.06 1.6,0.12 2.07,0.89 z"
       id="path30" />
    <path
       class="cls-1"
       d="m 121.81,66.48 c -0.06,1.19 -0.11,2.5 -0.16,3.66 -0.39,9.6 -1.49,19.69 -2.77,29.13 -0.23,1.68 -0.68,7.51 -2.58,7.51 -2.02,-0.57 -2.32,-2.8 -2.18,-4.59 l 3.38,-35.71 c -2.83,-0.76 -14.36,2.37 -14.26,-2.56 0.03,-1.63 2.17,-1.67 3.45,-1.77 6.12,-0.49 20.5,-0.7 26.23,0.17 2.47,0.37 3.95,3.71 2.32,3.8 -3.47,0.18 -13.43,0.37 -13.43,0.37 z"
       id="path32" />
    <path
       class="cls-1"
       d="m 208.62,100.52 c 5.47,0.23 11.07,-0.3 16.53,0 1.17,0.07 5.67,0.49 6.37,0.81 1.23,0.56 0.6,2.8 -0.37,3.27 -0.56,0.27 -3.63,0.55 -4.56,0.61 -3.66,0.26 -21.72,0.93 -22.08,-0.83 -0.55,-2.72 0.7,-12.07 1.22,-18.02 0.55,-6.32 0.61,-12.85 1.5,-19.12 0.21,-1.44 0.64,-4.69 1.43,-5.77 0.9,-1.23 2.58,-1.18 2.83,0.43 0.1,12.92 -1.71,25.76 -2.88,38.6 z"
       id="path34" />
    <path
       class="cls-1"
       d="m 65.83,65.92 c 11.3,11.9 3.24,43.9 -16.24,39.5 -8.66,-1.95 -11.12,-13.41 -11.05,-21.19 0.03,-3.44 1.16,-6.77 0.98,-7.64 -0.1,-0.51 -0.96,-1.25 -1.42,-1.88 -2.93,-4.01 -5.28,-7.46 -2.55,-10.5 2.02,-2.26 3.43,5.55 6.01,8.25 0.58,-1.31 0.81,-1.75 1.43,-2.64 5.32,-7.7 15.62,-11.5 22.85,-3.9 z M 66.9,82.96 C 68.23,66.32 52.83,58.55 44.13,74.83 49.1,81.37 58.8,85.15 66.9,82.96 Z m -0.43,3.41 c -6.84,2.31 -14.05,-0.35 -20.06,-3.66 -1.38,-0.76 -2.31,-2.2 -3.9,-2.09 -0.39,4.18 -0.58,7.51 0.62,11.61 1.2,4.1 3.71,8.04 7.84,8.97 6.19,1.4 10.74,-3.14 13.3,-8.16 0.45,-0.88 2.63,-6.14 2.2,-6.66 z"
       id="path36" />
    <path
       class="cls-1"
       d="m 197.75,65.7 c 11.3,11.9 3.24,43.9 -16.24,39.5 -8.66,-1.95 -11.12,-13.41 -11.05,-21.19 0.03,-3.44 1.16,-6.77 0.98,-7.64 -0.1,-0.51 -0.96,-1.25 -1.42,-1.88 -2.93,-4.01 -5.28,-7.46 -2.55,-10.5 2.02,-2.26 3.43,5.55 6.01,8.25 0.58,-1.31 0.81,-1.75 1.43,-2.64 5.32,-7.7 15.62,-11.5 22.85,-3.9 z m 1.07,17.04 c 1.33,-16.64 -14.07,-24.41 -22.77,-8.13 4.97,6.54 14.67,10.32 22.77,8.13 z m -0.43,3.41 c -6.84,2.31 -14.05,-0.35 -20.06,-3.66 -1.38,-0.76 -2.31,-2.2 -3.9,-2.09 -0.39,4.18 -0.58,7.51 0.62,11.61 1.2,4.1 3.71,8.04 7.84,8.97 6.19,1.4 10.74,-3.14 13.3,-8.16 0.45,-0.88 2.63,-6.14 2.2,-6.66 z"
       id="path38" />
    <path
       class="cls-1"
       d="m 273.45,65.48 c 11.3,11.9 3.24,43.9 -16.24,39.5 -8.66,-1.95 -11.12,-13.41 -11.05,-21.19 0.03,-3.44 1.16,-6.77 0.98,-7.64 -0.1,-0.51 -0.96,-1.25 -1.42,-1.88 -2.93,-4.01 -5.28,-7.46 -2.55,-10.5 2.02,-2.26 3.43,5.55 6.01,8.25 0.58,-1.31 0.81,-1.75 1.43,-2.64 5.32,-7.7 15.62,-11.5 22.85,-3.9 z m 1.08,17.05 c 1.33,-16.64 -14.07,-24.41 -22.77,-8.13 4.97,6.54 14.67,10.32 22.77,8.13 z m -0.43,3.4 c -6.84,2.31 -14.05,-0.35 -20.06,-3.66 -1.38,-0.76 -2.31,-2.2 -3.9,-2.09 -0.39,4.18 -0.58,7.51 0.62,11.61 1.2,4.1 3.71,8.04 7.84,8.97 6.19,1.4 10.74,-3.14 13.3,-8.16 0.45,-0.88 2.63,-6.14 2.2,-6.66 z"
       id="path40" />
    <path
       class="cls-1"
       d="m 237.68,105.03 c -0.12,1.49 -2,0.77 -2.62,0.44 -0.71,-0.38 -0.27,-6.83 -0.25,-8.36 0.16,-9.77 1.53,-33.23 1.61,-33.86 0.16,-1.36 3.17,-2.35 3.1,0.39 -0.12,4.8 -0.54,18.39 -0.59,19.75 -0.28,7.16 -0.24,8.63 -1.25,21.65 z"
       id="path42" />
  </g>
  <g
     id="g58"
     transform="translate(0.00218738,-0.00504728)">
    <path
       class="cls-1"
       d="m 176.77,125.73 c 3.64,4.63 4.15,13.57 4.58,19.39 0.57,0.65 7.51,-4.03 8.38,-4.8 0.87,-0.77 6.32,-7.74 6.03,-1.68 -0.22,4.48 -9.82,10.17 -13.85,11.35 0.18,2.93 0.07,6.39 -0.04,9.25 -0.04,1.17 0.84,9.96 -2.77,6.82 -2.41,-2.1 -0.23,-11.77 -1.11,-15.19 -4.95,1.19 -10.17,1.05 -14.85,-0.96 0,0 -1.91,10.98 -4.29,16.1 -0.18,0.38 -1.25,0.21 -1.67,0.16 -1.16,-0.13 -0.84,-3.01 -0.79,-4.06 0.13,-2.57 0.66,-5.9 1.11,-8.48 1.08,-6.15 6.35,-25.08 11.12,-28.65 2.98,-2.23 5.8,-2.24 8.14,0.74 z m 0.74,20.82 c 0.5,-0.47 -1.01,-11.97 -1.44,-13.61 -0.35,-1.31 -1.81,-5.48 -3.5,-5.04 -1.4,0.37 -4.54,6.27 -5.21,7.77 -1.34,3.01 -2.24,6.7 -3.22,9.87 4.08,2.37 8.93,1.46 13.37,1.01 z"
       id="path46" />
    <path
       class="cls-1"
       d="m 34.09,125.77 c 11.3,11.9 3.24,43.9 -16.24,39.5 C 9.19,163.32 6.73,151.86 6.8,144.08 c 0.03,-3.44 1.16,-6.77 0.98,-7.64 -0.1,-0.51 -0.96,-1.25 -1.42,-1.88 -2.93,-4.01 -5.28,-7.46 -2.55,-10.5 2.02,-2.26 3.43,5.55 6.01,8.25 0.58,-1.31 0.81,-1.75 1.43,-2.64 5.32,-7.7 15.62,-11.5 22.85,-3.9 z m 1.08,17.04 C 36.5,126.17 21.1,118.4 12.4,134.68 c 4.97,6.54 14.67,10.32 22.77,8.13 z m -0.44,3.41 c -6.84,2.31 -14.05,-0.35 -20.06,-3.66 -1.38,-0.76 -2.31,-2.2 -3.9,-2.09 -0.39,4.18 -0.58,7.51 0.62,11.61 1.2,4.1 3.71,8.04 7.84,8.97 6.19,1.4 10.74,-3.14 13.3,-8.16 0.45,-0.88 2.63,-6.14 2.2,-6.66 z"
       id="path48" />
    <path
       class="cls-1"
       d="m 67.28,123.73 c 0.27,0.43 0.43,1.55 0,2.03 -0.76,0.87 -20.85,1.46 -20.85,1.46 l -0.47,15.83 c 2.58,-0.03 2.78,-0.07 4.07,-0.09 2.14,-0.03 11.75,-1.74 11.76,1.29 0,0.55 -0.33,0.89 -0.71,1.22 -1.92,1.65 -12.55,1.06 -15.6,1.41 -0.13,4.32 -0.29,8.79 -0.64,13.1 -0.11,1.32 0.33,5.43 -1.52,6.26 -3.14,1.41 -1.81,-5.77 -1.77,-7.82 0.21,-10.3 0.33,-20.92 0.62,-32.53 0.04,-1.63 0.47,-2.85 2.22,-3.05 4.01,-0.46 16.21,-0.33 20.84,0 0.89,0.06 1.6,0.12 2.07,0.89 z"
       id="path50" />
    <path
       class="cls-1"
       d="m 94.95,125.81 c -10.35,0.66 -21.11,0.9 -21.11,0.9 l -0.61,16.45 c 5.94,0.4 15.82,-1.84 15.83,1.2 0,0.55 -0.33,0.89 -0.71,1.22 -1.92,1.65 -12.55,1.06 -15.6,1.41 l -0.89,13.46 c 5.49,0.15 10.97,-0.12 16.41,0.51 2.77,0.32 5.16,3.12 2.45,3.31 -4.7,0.32 -21.44,0.97 -22.17,-0.51 -0.56,-1.14 0.76,-12.56 0.8,-14.3 0.25,-10.4 0.38,-12.84 1.04,-23.27 0.1,-1.62 0.52,-2.6 2.22,-3.05 4.17,-1.11 15.9,-0.96 20.52,-0.61 3.59,0.27 2.74,3.23 1.81,3.29 z"
       id="path52" />
    <path
       class="cls-1"
       d="m 134.65,159.99 c 1.32,0.93 -0.21,3.63 -1.42,4.48 -1.29,0.9 -4.62,1.66 -5.02,1.69 -7.74,0.55 -13.03,-10.59 -19.15,-13.88 -0.7,0.46 -0.66,0.92 -0.74,1.65 -0.4,3.68 -0.01,8.06 -0.67,11.8 -0.37,1.23 -1.93,1.99 -3.16,1.68 -1.52,-1.12 0.35,-13.58 -0.16,-16.04 0,0 -1.39,0.02 -1.65,0 -1.37,-0.11 -3.68,0.11 -3.86,-0.6 -0.88,-3.4 0.83,-3.88 3.53,-3.77 2.15,0.09 2.97,0.53 3.04,-0.31 l 1.49,-20.02 c 0,0 -8.02,0.36 -8.7,-0.99 -0.82,-1.65 -0.82,-3.02 5.17,-3.57 10.45,-0.96 27.96,3.82 24.03,17.33 -1.68,5.78 -8.68,8.97 -13.76,11.16 1.09,1.53 2.78,3.14 4.05,4.34 2.81,2.65 5.91,7.12 10.53,6.9 1.51,-0.07 5.55,-2.48 6.46,-1.84 z m -25.36,-12.98 c 6.23,-1.02 15.86,-5.4 14.27,-13.08 -0.83,-4.03 -8.87,-7.37 -12.6,-7.55 -1.11,-0.05 -0.91,0.02 -0.98,0.67 -0.44,3.73 -0.65,7.5 -0.82,11.14 -0.14,2.89 -0.16,5.87 0.14,8.81 z"
       id="path54" />
    <path
       class="cls-1"
       d="m 146.48,125.89 c -0.06,1.19 -0.11,2.5 -0.16,3.66 -0.39,9.6 -1.49,19.69 -2.77,29.13 -0.23,1.68 -0.68,7.51 -2.58,7.51 -2.02,-0.57 -2.32,-2.8 -2.18,-4.59 l 3.38,-35.71 c -2.83,-0.76 -14.36,2.37 -14.26,-2.56 0.03,-1.63 2.17,-1.67 3.45,-1.77 6.12,-0.49 20.5,-0.7 26.23,0.17 2.47,0.37 3.95,3.71 2.32,3.8 -3.47,0.18 -13.43,0.37 -13.43,0.37 z"
       id="path56" />
  </g>
  <g
     id="g74"
     transform="translate(0.00218738,-0.00504728)">
    <path
       class="cls-1"
       d="m 7.29,203.62 5.98,-4.33 c 4.89,-4.48 9.76,-9.17 14.95,-13.33 1.6,-1.28 4.65,-3.77 4.4,0.06 -4.28,5 -9.52,9.05 -14.33,13.51 -0.77,0.72 -5.7,4.4 -6.2,6.48 4.76,1.05 8.39,4.36 11.49,7.93 1.17,1.35 5.31,7.72 6.25,8.15 1.91,0.88 4.11,-2.11 6.01,-1.54 2.33,0.69 0.82,3.2 -0.78,4.38 -3.98,2.94 -7.86,0.19 -10.5,-2.98 -2.85,-3.42 -4.4,-6.95 -8.16,-9.95 -2.19,-1.75 -6.49,-4.53 -9.14,-2.81 -0.49,5.66 -0.17,11.25 -1.42,16.97 -0.33,1.51 -2.21,0.54 -2.8,0.28 -1.55,-0.7 -0.09,-6.7 -0.07,-8.2 0.16,-9.77 0.04,-22.56 1.47,-32.09 0.3,-2.02 3.05,-3.61 3.24,-1.38 0.55,6.67 0.11,12.63 -0.39,18.85 z"
       id="path60" />
    <path
       class="cls-1"
       d="m 155.13,186.61 c 3.64,4.63 4.15,13.57 4.58,19.39 0.57,0.65 7.51,-4.03 8.38,-4.8 0.87,-0.77 6.32,-7.74 6.03,-1.68 -0.22,4.48 -9.82,10.17 -13.85,11.35 0.18,2.93 0.07,6.39 -0.04,9.25 -0.04,1.17 0.84,9.96 -2.77,6.82 -2.41,-2.1 -0.23,-11.77 -1.11,-15.19 -4.95,1.19 -10.17,1.05 -14.85,-0.96 0,0 -1.91,10.98 -4.29,16.1 -0.18,0.38 -1.25,0.21 -1.67,0.16 -1.16,-0.13 -0.84,-3.01 -0.79,-4.06 0.13,-2.57 0.66,-5.9 1.11,-8.48 1.08,-6.15 6.35,-25.08 11.12,-28.65 2.98,-2.23 5.8,-2.24 8.14,0.74 z m 0.74,20.83 c 0.5,-0.47 -1.01,-11.97 -1.44,-13.61 -0.35,-1.31 -1.81,-5.48 -3.5,-5.04 -1.4,0.37 -4.54,6.27 -5.21,7.77 -1.34,3.01 -2.24,6.7 -3.22,9.87 4.08,2.37 8.93,1.46 13.37,1.01 z"
       id="path62" />
    <path
       class="cls-1"
       d="m 127.62,187.87 c -0.06,1.19 -0.11,2.5 -0.16,3.66 -0.39,9.6 -1.49,19.69 -2.77,29.13 -0.23,1.68 -0.68,7.51 -2.58,7.51 -2.02,-0.57 -2.32,-2.8 -2.18,-4.59 l 3.38,-35.71 c -2.83,-0.76 -14.36,2.37 -14.26,-2.56 0.03,-1.63 2.17,-1.67 3.45,-1.77 6.12,-0.49 20.5,-0.7 26.23,0.17 2.47,0.37 3.95,3.71 2.32,3.8 -3.47,0.18 -13.43,0.37 -13.43,0.37 z"
       id="path64" />
    <path
       class="cls-1"
       d="m 227.85,188.69 c -0.06,1.19 -0.11,2.5 -0.16,3.66 -0.39,9.6 -1.49,19.69 -2.77,29.13 -0.23,1.68 -0.68,7.51 -2.58,7.51 -2.02,-0.57 -2.32,-2.8 -2.18,-4.59 l 3.38,-35.71 c -2.83,-0.76 -14.36,2.37 -14.26,-2.56 0.03,-1.63 2.17,-1.67 3.45,-1.77 6.12,-0.49 20.5,-0.7 26.23,0.17 2.47,0.37 3.95,3.71 2.32,3.8 -3.47,0.18 -13.43,0.37 -13.43,0.37 z"
       id="path66" />
    <path
       class="cls-1"
       d="m 99.66,219.8 c 0,0 0.68,-20.06 2.92,-35.27 0.27,-1.85 3.17,-2.32 2.97,0.72 -1.01,15.12 -0.98,27.4 -3.07,41.45 -1.92,3.42 -4.32,-0.97 -5.39,-2.64 -2.9,-4.52 -5.54,-11.07 -8.07,-15.86 -3.03,-5.73 -6.35,-11.08 -8.78,-17.17 -0.27,0 -0.59,2.21 -0.64,2.71 -0.96,9.43 -0.32,23.64 -2.59,32.42 -0.35,1.34 -2.34,3.07 -2.54,1.32 -0.71,-6.34 0.34,-10.86 0.65,-16.14 0.42,-7.16 0.77,-13.87 1.51,-21.03 0.26,-2.5 -1.1,-6.9 2.24,-6.85 3.92,0.07 9.16,14.08 10.73,17.22 1.34,2.7 7.03,14.93 10.05,19.12 z"
       id="path68" />
    <path
       class="cls-1"
       d="m 65.83,187.13 c 11.3,11.9 3.24,43.9 -16.24,39.5 -8.66,-1.95 -11.12,-13.41 -11.05,-21.19 0.03,-3.44 1.16,-6.77 0.98,-7.64 -0.1,-0.51 -0.96,-1.25 -1.42,-1.88 -2.93,-4.01 -5.28,-7.46 -2.55,-10.5 2.02,-2.26 3.43,5.55 6.01,8.25 0.58,-1.31 0.81,-1.75 1.43,-2.64 5.32,-7.7 15.62,-11.5 22.85,-3.9 z m 1.07,17.05 c 1.33,-16.64 -14.07,-24.41 -22.77,-8.13 4.97,6.54 14.67,10.32 22.77,8.13 z m -0.43,3.4 c -6.84,2.31 -14.05,-0.35 -20.06,-3.66 -1.38,-0.76 -2.31,-2.2 -3.9,-2.09 -0.39,4.18 -0.58,7.51 0.62,11.61 1.2,4.1 3.71,8.04 7.84,8.97 6.19,1.4 10.74,-3.14 13.3,-8.16 0.45,-0.88 2.63,-6.14 2.2,-6.66 z"
       id="path70" />
    <path
       class="cls-1"
       d="m 181.01,203.92 5.98,-4.33 c 4.89,-4.48 9.76,-9.17 14.95,-13.33 1.6,-1.28 4.65,-3.77 4.4,0.06 -4.28,5 -9.52,9.05 -14.33,13.51 -0.77,0.72 -5.7,4.4 -6.2,6.48 4.76,1.05 8.39,4.36 11.49,7.93 1.17,1.35 5.31,7.72 6.25,8.15 1.91,0.88 4.11,-2.11 6.01,-1.54 2.33,0.69 0.82,3.2 -0.78,4.38 -3.98,2.94 -7.86,0.19 -10.5,-2.98 -2.85,-3.42 -4.4,-6.95 -8.16,-9.95 -2.19,-1.75 -6.49,-4.53 -9.14,-2.81 -0.49,5.66 -0.17,11.25 -1.42,16.97 -0.33,1.51 -2.21,0.54 -2.8,0.28 -1.55,-0.7 -0.09,-6.7 -0.07,-8.2 0.16,-9.77 0.04,-22.56 1.47,-32.09 0.3,-2.02 3.05,-3.61 3.24,-1.38 0.55,6.67 0.11,12.63 -0.39,18.85 z"
       id="path72" />
  </g>
  <g
     id="g84"
     transform="translate(0.00218738,-0.00504728)">
    <path
       class="cls-1"
       d="M 64.18,298.83 C 62.12,303.04 58,305.52 53.05,305.67 38.36,306.13 24.63,305.58 9.03,305.03 2.68,304.81 1.01,298.47 0.55,292.51 -0.56,278 0.3,264.11 0.58,249.42 c 0.09,-4.78 3.69,-7.67 7.87,-7.49 11.41,0.48 23.05,0.4 34.55,0.43 4.51,0.01 15.26,-1.86 18.23,1.05 1.84,1.8 4.92,1.04 4.96,16.1 0.02,6.35 -0.35,29.33 -0.89,34.9 -0.15,1.5 -0.44,3.05 -1.11,4.41 z M 24.06,271.72 c 2.48,-0.68 6.49,-1.71 7.35,-4.4 1.93,-6.08 -3.9,-9.3 -8.64,-10.8 -4.15,-1.31 -9.11,-2.2 -15.37,-0.88 0.06,3.62 -0.38,7.95 -0.59,11.52 -0.32,5.33 -0.41,10.98 -0.5,16.28 -0.11,6.71 0,8.34 6.98,8.89 9.11,0.71 28.15,-5.94 18.41,-16.02 -1.55,-1.6 -7.63,-4.59 -7.63,-4.59 z m 17.02,-8.16 c 3.2,0.48 12.94,0 12.94,0 0.35,0 1.46,-1.51 1.24,-2.15 -0.02,-0.87 -0.57,-0.97 -1.2,-1.26 -1.16,-0.54 -11.21,-0.68 -12.4,-0.33 -1.64,0.48 -1.78,3.56 -0.58,3.74 z m 16.87,7.33 c -1.38,-1.76 -6,-3.46 -8.24,-3.52 -10.28,-0.27 -15.63,11.52 -9.13,19.23 3.99,4.73 12.79,5.3 16.98,0.65 0.77,-0.85 2.63,-3.44 0.72,-4 -1.48,-0.43 -3.7,2.54 -5.37,3.19 -4.19,1.62 -10.57,0 -10.64,-5.13 1.84,-0.37 4.56,-0.68 6.27,-1.17 1.79,-0.52 7.36,-2.4 8.58,-3.41 1.75,-1.44 2.28,-4 0.84,-5.84 z"
       id="path76" />
    <path
       class="cls-1"
       d="m 28.28,266.11 c -0.35,3.81 -16.19,2.61 -17.91,2.71 -0.22,-3.51 0.36,-9.28 0.27,-11.02 4.45,0.25 18.26,1.47 17.64,8.3 z"
       id="path78" />
    <path
       class="cls-1"
       d="m 41.8,277.95 c 0.34,-6.85 8.81,-9.73 13.03,-4.19 z"
       id="path80" />
    <path
       class="cls-1"
       d="m 29.58,282.33 c -0.57,6.71 -17.71,5.39 -19.43,5.49 -0.22,-3.51 0.58,-12.73 0.49,-14.47 4.45,0.25 19.52,2.14 18.94,8.98 z"
       id="path82" />
  </g>
</svg>
