<?xml version="1.0" encoding="UTF-8" standalone="no"?>
<svg
   id="Warstwa_1"
   data-name="Warstwa 1"
   viewBox="0 0 193.16958 46.344414"
   version="1.1"
   sodipodi:docname="oferta.svg"
   width="193.16959"
   height="46.344414"
   inkscape:version="1.2.2 (b0a8486541, 2022-12-01)"
   xmlns:inkscape="http://www.inkscape.org/namespaces/inkscape"
   xmlns:sodipodi="http://sodipodi.sourceforge.net/DTD/sodipodi-0.dtd"
   xmlns="http://www.w3.org/2000/svg"
   xmlns:svg="http://www.w3.org/2000/svg">
  <sodipodi:namedview
     id="namedview19"
     pagecolor="#ffffff"
     bordercolor="#000000"
     borderopacity="0.25"
     inkscape:showpageshadow="2"
     inkscape:pageopacity="0.0"
     inkscape:pagecheckerboard="0"
     inkscape:deskcolor="#d1d1d1"
     showgrid="false"
     inkscape:zoom="1.7833333"
     inkscape:cx="141.58879"
     inkscape:cy="72.056075"
     inkscape:window-width="1920"
     inkscape:window-height="1011"
     inkscape:window-x="0"
     inkscape:window-y="43"
     inkscape:window-maximized="1"
     inkscape:current-layer="Warstwa_1" />
  <defs
     id="defs4">
    <style
       id="style2">
      .cls-1 {
        fill: #173949;
      }
    </style>
  </defs>
  <path
     class="cls-1"
     d="m 174.16843,4.59511 c 3.64,4.63 4.15,13.57 4.58,19.39 0.57,0.65 7.51,-4.03 8.38,-4.8 0.87,-0.77 6.32,-7.74 6.03,-1.68 -0.22,4.48 -9.82,10.17 -13.85,11.35 0.18,2.93 0.07,6.39 -0.04,9.25 -0.04,1.17 0.84,9.96 -2.77,6.82 -2.41,-2.1 -0.23,-11.77 -1.11,-15.19 -4.95,1.19 -10.17,1.05 -14.85,-0.96 0,0 -1.91,10.98 -4.29,16.1 -0.18,0.38 -1.25,0.21 -1.67,0.16 -1.16,-0.13 -0.84,-3.01 -0.79,-4.06 0.13,-2.57 0.66,-5.9 1.11,-8.48 1.08,-6.15 6.35,-25.08 11.12,-28.65 2.98,-2.23 5.8,-2.24 8.14,0.74 z m 0.74,20.83 c 0.5,-0.47 -1.01,-11.97 -1.44,-13.61 -0.35,-1.31 -1.81,-5.48 -3.5,-5.04 -1.4,0.37 -4.54,6.27 -5.21,7.77 -1.34,3.01 -2.24,6.7 -3.22,9.87 4.08,2.37 8.93,1.46 13.37,1.01 z"
     id="path6" />
  <path
     class="cls-1"
     d="m 31.488429,4.63511 c 11.3,11.9 3.24,43.9 -16.24,39.5 -8.6599999,-1.95 -11.1199999,-13.41 -11.0499999,-21.19 0.03,-3.44 1.16,-6.77 0.98,-7.64 -0.1,-0.51 -0.96,-1.25 -1.42,-1.88 -2.92999997,-4.01 -5.28,-7.46 -2.55,-10.5 2.02,-2.26000002 3.43,5.55 6.01,8.25 0.58,-1.31 0.81,-1.75 1.43,-2.64 5.3199999,-7.70000002 15.6199999,-11.5 22.8499999,-3.9 z m 1.08,17.04 c 1.33,-16.64 -14.07,-24.41 -22.7699999,-8.13 4.9699999,6.54 14.6699999,10.32 22.7699999,8.13 z m -0.43,3.41 c -6.84,2.31 -14.05,-0.35 -20.06,-3.66 -1.38,-0.76 -2.3099999,-2.2 -3.8999999,-2.09 -0.39,4.18 -0.58,7.51 0.62,11.61 1.2,4.1 3.7099999,8.04 7.8399999,8.97 6.19,1.4 10.74,-3.14 13.3,-8.16 0.45,-0.88 2.63,-6.14 2.2,-6.66 z"
     id="path8" />
  <path
     class="cls-1"
     d="m 64.678429,2.59511 c 0.27,0.43 0.43,1.55 0,2.03 -0.76,0.87 -20.85,1.46 -20.85,1.46 l -0.47,15.83 c 2.58,-0.03 2.78,-0.07 4.07,-0.09 2.14,-0.03 11.75,-1.74 11.76,1.29 0,0.55 -0.33,0.89 -0.71,1.22 -1.92,1.65 -12.55,1.06 -15.6,1.41 -0.13,4.32 -0.29,8.79 -0.64,13.1 -0.11,1.32 0.33,5.43 -1.52,6.26 -3.14,1.41 -1.81,-5.77 -1.77,-7.82 0.21,-10.3 0.33,-20.92 0.62,-32.53 0.04,-1.63 0.47,-2.85 2.22,-3.05 4.01,-0.46 16.21,-0.33 20.84,0 0.89,0.06 1.6,0.12 2.07,0.89 z"
     id="path10" />
  <path
     class="cls-1"
     d="m 92.348429,4.67511 c -10.35,0.66 -21.11,0.9 -21.11,0.9 l -0.61,16.45 c 5.94,0.4 15.82,-1.84 15.83,1.2 0,0.55 -0.33,0.89 -0.71,1.22 -1.92,1.65 -12.55,1.06 -15.6,1.41 l -0.89,13.46 c 5.49,0.15 10.97,-0.12 16.41,0.51 2.77,0.32 5.16,3.12 2.45,3.31 -4.7,0.32 -21.44,0.97 -22.17,-0.51 -0.56,-1.14 0.76,-12.56 0.8,-14.3 0.25,-10.4 0.38,-12.84 1.04,-23.27 0.1,-1.62 0.52,-2.6 2.22,-3.05 4.17,-1.11000002 15.9,-0.96 20.52,-0.61 3.59,0.27 2.74,3.23 1.81,3.29 z"
     id="path12" />
  <path
     class="cls-1"
     d="m 132.04843,38.85511 c 1.32,0.93 -0.21,3.63 -1.42,4.48 -1.29,0.9 -4.62,1.66 -5.02,1.69 -7.74,0.55 -13.03,-10.59 -19.15,-13.88 -0.7,0.46 -0.66,0.92 -0.74,1.65 -0.4,3.68 -0.01,8.06 -0.67,11.8 -0.37,1.23 -1.93,1.99 -3.16,1.68 -1.52,-1.12 0.35,-13.58 -0.16,-16.04 0,0 -1.39,0.02 -1.65,0 -1.370001,-0.11 -3.680001,0.11 -3.860001,-0.6 -0.88,-3.4 0.83,-3.88 3.53,-3.77 2.150001,0.09 2.970001,0.53 3.040001,-0.31 l 1.49,-20.02 c 0,0 -8.020001,0.36 -8.700001,-0.99 -0.82,-1.65 -0.82,-3.02 5.170001,-3.57000002 10.45,-0.96 27.96,3.82000002 24.03,17.33000002 -1.68,5.78 -8.68,8.97 -13.76,11.16 1.09,1.53 2.78,3.14 4.05,4.34 2.81,2.65 5.91,7.12 10.53,6.9 1.51,-0.07 5.55,-2.48 6.46,-1.84 z m -25.36,-12.98 c 6.23,-1.02 15.86,-5.4 14.27,-13.08 -0.83,-4.03 -8.87,-7.37 -12.6,-7.55 -1.11,-0.05 -0.91,0.02 -0.98,0.67 -0.44,3.73 -0.65,7.5 -0.82,11.14 -0.14,2.89 -0.16,5.87 0.14,8.81 z"
     id="path14" />
  <path
     class="cls-1"
     d="m 143.87843,4.75511 c -0.06,1.19 -0.11,2.5 -0.16,3.66 -0.39,9.6 -1.49,19.69 -2.77,29.13 -0.23,1.68 -0.68,7.51 -2.58,7.51 -2.02,-0.57 -2.32,-2.8 -2.18,-4.59 l 3.38,-35.71 c -2.83,-0.76 -14.36,2.37 -14.26,-2.56 0.03,-1.63000002 2.17,-1.67000002 3.45,-1.77000002 6.12,-0.49 20.5,-0.7 26.23,0.17 2.47,0.37 3.95,3.71000002 2.32,3.80000002 -3.47,0.18 -13.43,0.37 -13.43,0.37 z"
     id="path16" />
</svg>
