<?xml version="1.0" encoding="UTF-8" standalone="no"?>
<svg
   id="Warstwa_1"
   data-name="Warstwa 1"
   viewBox="0 0 165.62824 46.137299"
   version="1.1"
   sodipodi:docname="omnie.svg"
   width="165.62825"
   height="46.137299"
   inkscape:version="1.2.2 (b0a8486541, 2022-12-01)"
   xmlns:inkscape="http://www.inkscape.org/namespaces/inkscape"
   xmlns:sodipodi="http://sodipodi.sourceforge.net/DTD/sodipodi-0.dtd"
   xmlns="http://www.w3.org/2000/svg"
   xmlns:svg="http://www.w3.org/2000/svg">
  <sodipodi:namedview
     id="namedview17"
     pagecolor="#ffffff"
     bordercolor="#000000"
     borderopacity="0.25"
     inkscape:showpageshadow="2"
     inkscape:pageopacity="0.0"
     inkscape:pagecheckerboard="0"
     inkscape:deskcolor="#d1d1d1"
     showgrid="false"
     inkscape:zoom="1.7833333"
     inkscape:cx="139.90654"
     inkscape:cy="193.17757"
     inkscape:window-width="1920"
     inkscape:window-height="1011"
     inkscape:window-x="0"
     inkscape:window-y="43"
     inkscape:window-maximized="1"
     inkscape:current-layer="Warstwa_1" />
  <defs
     id="defs4">
    <style
       id="style2">
      .cls-1 {
        fill: #173949;
      }
    </style>
  </defs>
  <path
     class="cls-1"
     d="m 31.488429,6.2249527 c 11.3,11.9000003 3.24,43.9000003 -16.24,39.5000003 -8.6599999,-1.95 -11.1199999,-13.41 -11.0499999,-21.19 0.03,-3.44 1.16,-6.77 0.98,-7.64 -0.1,-0.51 -0.96,-1.25 -1.42,-1.88 -2.92999997,-4.01 -5.28,-7.4600003 -2.55,-10.5000003 2.02,-2.26 3.43,5.5500003 6.01,8.2500003 0.58,-1.31 0.81,-1.75 1.43,-2.64 C 13.968429,2.4249527 24.268429,-1.3750473 31.498429,6.2249527 Z m 1.08,17.0400003 c 1.33,-16.6400003 -14.07,-24.4100003 -22.7699999,-8.13 4.9699999,6.54 14.6699999,10.32 22.7699999,8.13 z m -0.43,3.41 c -6.84,2.31 -14.05,-0.35 -20.06,-3.66 -1.38,-0.76 -2.3099999,-2.2 -3.8999999,-2.09 -0.39,4.18 -0.58,7.51 0.62,11.61 1.2,4.1 3.7099999,8.04 7.8399999,8.97 6.19,1.4 10.74,-3.14 13.3,-8.16 0.45,-0.88 2.63,-6.14 2.2,-6.66 z"
     id="path6" />
  <path
     class="cls-1"
     d="m 81.178429,5.9549527 c 3.03,-6.94999998 5.39,-8.61 6.51,0.4 0.69,5.5400003 0.62,11.1800003 1.02,16.7200003 0.2,2.66 2.45,20.75 0.89,21.28 -0.56,0.19 -2.08,0.36 -2.35,-0.16 -0.63,-1.17 -2.75,-24.62 -3.09,-30.95 -0.07,-1.3 -0.62,-0.66 -0.72,-0.47 -2.29,4.06 -4.26,13.43 -6.68,17.41 -0.64,1.06 -2.2,1.09 -3.19,0.37 -1.78,-1.31 -5.68,-16.43 -7.38,-19.22 0,0 -2.1,16.87 -4.34,32.51 -0.26,1.79 -3.21,-0.21 -3.32,-2.17 -0.08,-1.41 0.33,-3.45 0.47,-5.16 0.49,-6.18 1.61,-12.65 2.26,-18.84 0.44,-4.16 0.3,-10.1200003 1.19,-14.1600003 0.36,-1.62 2.24,-3.34999998 3.71,-2.01 0.47,0.43 1.66,2.54 2.03,3.26 2.87,5.6000003 4.22,12.3300003 6.86,18.0600003"
     id="path8" />
  <path
     class="cls-1"
     d="m 121.04843,36.744953 c 0,0 0.68,-20.06 2.92,-35.2700003 0.27,-1.84999998 3.17,-2.31999998 2.97,0.72 -1.01,15.1200003 -0.98,27.4000003 -3.07,41.4500003 -1.92,3.42 -4.32,-0.97 -5.39,-2.64 -2.9,-4.52 -5.54,-11.07 -8.07,-15.86 -3.03,-5.73 -6.35,-11.08 -8.78,-17.1700003 -0.27,0 -0.59,2.2100003 -0.64,2.7100003 -0.96,9.43 -0.32,23.64 -2.590001,32.42 -0.35,1.34 -2.34,3.07 -2.54,1.32 -0.71,-6.34 0.34,-10.86 0.65,-16.14 0.42,-7.16 0.77,-13.87 1.51,-21.0300003 0.26,-2.5 -1.1,-6.89999998 2.240001,-6.84999998 3.92,0.07 9.16,14.08000028 10.73,17.22000028 1.34,2.7 7.03,14.93 10.05,19.12 z"
     id="path10" />
  <path
     class="cls-1"
     d="m 164.82843,5.9649527 c -10.35,0.66 -21.11,0.9 -21.11,0.9 l -0.61,16.4500003 c 5.94,0.4 15.82,-1.84 15.83,1.2 0,0.55 -0.33,0.89 -0.71,1.22 -1.92,1.65 -12.55,1.06 -15.6,1.41 l -0.89,13.46 c 5.49,0.15 10.97,-0.12 16.41,0.51 2.77,0.32 5.16,3.12 2.45,3.31 -4.7,0.32 -21.44,0.97 -22.17,-0.51 -0.56,-1.14 0.76,-12.56 0.8,-14.3 0.25,-10.4 0.38,-12.84 1.04,-23.2700003 0.1,-1.62 0.52,-2.6 2.22,-3.05 4.17,-1.11 15.9,-0.96 20.52,-0.61 3.59,0.27 2.74,3.23 1.81,3.29 z"
     id="path12" />
  <path
     class="cls-1"
     d="m 133.02843,44.424953 c -0.12,1.49 -2,0.77 -2.62,0.44 -0.71,-0.38 -0.27,-6.83 -0.25,-8.36 0.16,-9.77 1.53,-33.2300003 1.61,-33.8600003 0.16,-1.36 3.17,-2.34999998 3.1,0.39 -0.12,4.8 -0.54,18.3900003 -0.59,19.7500003 -0.28,7.16 -0.24,8.63 -1.25,21.65 z"
     id="path14" />
</svg>
