<?xml version="1.0" encoding="UTF-8" standalone="no"?>
<svg
   id="Warstwa_1"
   data-name="Warstwa 1"
   viewBox="0 0 273.60833 46.167625"
   version="1.1"
   sodipodi:docname="portfolio.svg"
   width="273.60834"
   height="46.167625"
   inkscape:version="1.2.2 (b0a8486541, 2022-12-01)"
   xmlns:inkscape="http://www.inkscape.org/namespaces/inkscape"
   xmlns:sodipodi="http://sodipodi.sourceforge.net/DTD/sodipodi-0.dtd"
   xmlns="http://www.w3.org/2000/svg"
   xmlns:svg="http://www.w3.org/2000/svg">
  <sodipodi:namedview
     id="namedview25"
     pagecolor="#ffffff"
     bordercolor="#000000"
     borderopacity="0.25"
     inkscape:showpageshadow="2"
     inkscape:pageopacity="0.0"
     inkscape:pagecheckerboard="0"
     inkscape:deskcolor="#d1d1d1"
     showgrid="false"
     inkscape:zoom="1.7833333"
     inkscape:cx="139.34579"
     inkscape:cy="132.61682"
     inkscape:window-width="1920"
     inkscape:window-height="1011"
     inkscape:window-x="0"
     inkscape:window-y="43"
     inkscape:window-maximized="1"
     inkscape:current-layer="Warstwa_1" />
  <defs
     id="defs4">
    <style
       id="style2">
      .cls-1 {
        fill: #173949;
      }
    </style>
  </defs>
  <path
     class="cls-1"
     d="m 103.36414,38.517627 c 1.32,0.93 -0.21,3.63 -1.42,4.48 -1.29,0.9 -4.620003,1.66 -5.020003,1.69 -7.74,0.55 -13.03,-10.59 -19.15,-13.88 -0.7,0.46 -0.66,0.92 -0.74,1.65 -0.4,3.68 -0.01,8.06 -0.67,11.8 -0.37,1.23 -1.93,1.99 -3.16,1.68 -1.52,-1.12 0.35,-13.58 -0.16,-16.04 0,0 -1.39,0.02 -1.65,0 -1.37,-0.11 -3.68,0.11 -3.86,-0.6 -0.88,-3.4 0.83,-3.88 3.53,-3.77 2.15,0.09 2.97,0.53 3.04,-0.31 l 1.49,-20.0200001 c 0,0 -8.02,0.36 -8.7,-0.99 -0.82,-1.65 -0.82,-3.02 5.17,-3.57000001 10.45,-0.96 27.960003,3.82000001 24.03,17.33000011 -1.68,5.78 -8.68,8.97 -13.76,11.16 1.09,1.53 2.78,3.14 4.05,4.34 2.81,2.65 5.91,7.12 10.53,6.9 1.51,-0.07 5.550003,-2.48 6.460003,-1.84 z m -25.350003,-12.99 c 6.23,-1.02 15.86,-5.4 14.27,-13.08 -0.83,-4.0300001 -8.87,-7.3700001 -12.6,-7.5500001 -1.11,-0.05 -0.91,0.02 -0.98,0.67 -0.44,3.73 -0.65,7.5000001 -0.82,11.1400001 -0.14,2.89 -0.16,5.87 0.14,8.81 z"
     id="path6" />
  <path
     class="cls-1"
     d="m 10.024137,29.447627 -1.1499998,13.95 c -0.42,1.9 -3.43,3.48 -3.75,0.61 -0.51,-4.61 0.88,-9.87 0.52,-14.47 0,0 -7.29,-1.11 -5.30000004,-3.78 1.55000004,-2.07 5.91000004,1.15 6.24000004,-1.43 l 0.46,-20.1800001 c -2.48,0.03 -6.62000004,0.14 -6.55000004,-1.17 0.13,-2.34000001 1.36000004,-2.67000001 3.57000004,-2.75000001 10.6299998,-0.42 28.8199998,3.78000001 24.3299998,17.62000011 -2.08,6.43 -12.08,10.85 -18.36,11.6 z m -0.2699998,-4.48 c 6.2299998,-1.02 16.5199998,-5.32 14.9299998,-13 -0.83,-4.0300001 -8.87,-7.3700001 -12.6,-7.5500001 -1.11,-0.05 -1.87,-0.16 -1.92,0.49 -0.2899998,3.71 0.09,7.5600001 -0.08,11.2000001 -0.1399998,2.89 -0.05,5.81 -0.3299998,8.85 z"
     id="path8" />
  <path
     class="cls-1"
     d="m 158.77414,3.3376269 c 0.27,0.43 0.43,1.55 0,2.03 -0.76,0.87 -20.85,1.46 -20.85,1.46 l -0.47,15.8300001 c 2.58,-0.03 2.78,-0.07 4.07,-0.09 2.14,-0.03 11.75,-1.74 11.76,1.29 0,0.55 -0.33,0.89 -0.71,1.22 -1.92,1.65 -12.55,1.06 -15.6,1.41 -0.13,4.32 -0.29,8.79 -0.64,13.1 -0.11,1.32 0.33,5.43 -1.52,6.26 -3.14,1.41 -1.81,-5.77 -1.77,-7.82 0.21,-10.3 0.33,-20.92 0.62,-32.5300001 0.04,-1.63 0.47,-2.85 2.22,-3.05 4.01,-0.46 16.21,-0.33 20.84,0 0.89,0.06 1.6,0.12 2.07,0.89 z"
     id="path10" />
  <path
     class="cls-1"
     d="m 116.79414,5.8676269 c -0.06,1.19 -0.11,2.5 -0.16,3.66 -0.39,9.6000001 -1.49,19.6900001 -2.77,29.1300001 -0.23,1.68 -0.68,7.51 -2.58,7.51 -2.02,-0.57 -2.32,-2.8 -2.18,-4.59 l 3.38,-35.7100001 c -2.83,-0.76 -14.360003,2.37 -14.260003,-2.56 0.03,-1.63 2.170003,-1.67 3.450003,-1.77 6.12,-0.49 20.5,-0.70000001 26.23,0.17 2.47,0.37 3.95,3.71 2.32,3.8 -3.47,0.18 -13.43,0.37 -13.43,0.37 z"
     id="path12" />
  <path
     class="cls-1"
     d="m 203.60414,39.907627 c 5.47,0.23 11.07,-0.3 16.53,0 1.17,0.07 5.67,0.49 6.37,0.81 1.23,0.56 0.6,2.8 -0.37,3.27 -0.56,0.27 -3.63,0.55 -4.56,0.61 -3.66,0.26 -21.72,0.93 -22.08,-0.83 -0.55,-2.72 0.7,-12.07 1.22,-18.02 0.55,-6.32 0.61,-12.85 1.5,-19.1200001 0.21,-1.44 0.64,-4.69 1.43,-5.77000001 0.9,-1.23 2.58,-1.18 2.83,0.43000001 0.1,12.9200001 -1.71,25.7600001 -2.88,38.6000001 z"
     id="path14" />
  <path
     class="cls-1"
     d="m 60.814137,5.3076269 c 11.3,11.9000001 3.24,43.9000001 -16.24,39.5000001 -8.66,-1.95 -11.12,-13.41 -11.05,-21.19 0.03,-3.44 1.16,-6.77 0.98,-7.64 -0.1,-0.51 -0.96,-1.25 -1.42,-1.88 -2.93,-4.01 -5.28,-7.4600001 -2.55,-10.5000001 2.02,-2.26 3.43,5.55 6.01,8.2500001 0.58,-1.31 0.81,-1.75 1.43,-2.6400001 5.32,-7.7 15.62,-11.5 22.85,-3.9 z m 1.07,17.0400001 c 1.33,-16.6400001 -14.07,-24.4100001 -22.77,-8.13 4.97,6.54 14.67,10.32 22.77,8.13 z m -0.43,3.41 c -6.84,2.31 -14.05,-0.35 -20.06,-3.66 -1.38,-0.76 -2.31,-2.2 -3.9,-2.09 -0.39,4.18 -0.58,7.51 0.62,11.61 1.2,4.1 3.71,8.04 7.84,8.97 6.19,1.4 10.74,-3.14 13.3,-8.16 0.45,-0.88 2.63,-6.14 2.2,-6.66 z"
     id="path16" />
  <path
     class="cls-1"
     d="m 192.73414,5.0876269 c 11.3,11.9000001 3.24,43.9000001 -16.24,39.5000001 -8.66,-1.95 -11.12,-13.41 -11.05,-21.19 0.03,-3.44 1.16,-6.77 0.98,-7.64 -0.1,-0.51 -0.96,-1.25 -1.42,-1.88 -2.93,-4.0100001 -5.28,-7.4600001 -2.55,-10.5000001 2.02,-2.26 3.43,5.55 6.01,8.2500001 0.58,-1.31 0.81,-1.7500001 1.43,-2.6400001 5.32,-7.7 15.62,-11.5 22.85,-3.9 z m 1.08,17.0500001 c 1.33,-16.6400001 -14.07,-24.4100001 -22.77,-8.13 4.97,6.54 14.67,10.32 22.77,8.13 z m -0.44,3.4 c -6.84,2.31 -14.05,-0.35 -20.06,-3.66 -1.38,-0.76 -2.31,-2.2 -3.9,-2.09 -0.39,4.18 -0.58,7.51 0.62,11.61 1.2,4.1 3.71,8.04 7.84,8.97 6.19,1.4 10.74,-3.14 13.3,-8.16 0.45,-0.88 2.63,-6.14 2.2,-6.66 z"
     id="path18" />
  <path
     class="cls-1"
     d="m 268.44414,4.8676269 c 11.3,11.9000001 3.24,43.9000001 -16.24,39.5000001 -8.66,-1.95 -11.12,-13.41 -11.05,-21.19 0.03,-3.44 1.16,-6.77 0.98,-7.64 -0.1,-0.51 -0.96,-1.25 -1.42,-1.88 -2.93,-4.0100001 -5.28,-7.4600001 -2.55,-10.5000001 2.02,-2.26000001 3.43,5.55 6.01,8.2500001 0.58,-1.31 0.81,-1.7500001 1.43,-2.6400001 5.32,-7.7 15.62,-11.5 22.85,-3.9 z m 1.07,17.0500001 c 1.33,-16.6400001 -14.07,-24.4100001 -22.77,-8.13 4.97,6.54 14.67,10.32 22.77,8.13 z m -0.43,3.4 c -6.84,2.31 -14.05,-0.35 -20.06,-3.66 -1.38,-0.76 -2.31,-2.2 -3.9,-2.09 -0.39,4.18 -0.58,7.51 0.62,11.61 1.2,4.1 3.71,8.04 7.84,8.97 6.19,1.4 10.74,-3.14 13.3,-8.16 0.45,-0.88 2.63,-6.14 2.2,-6.66 z"
     id="path20" />
  <path
     class="cls-1"
     d="m 232.66414,44.417627 c -0.12,1.49 -2,0.77 -2.62,0.44 -0.71,-0.38 -0.27,-6.83 -0.25,-8.36 0.16,-9.77 1.53,-33.2300001 1.61,-33.8600001 0.16,-1.36 3.17,-2.35000001 3.1,0.39 -0.12,4.8 -0.54,18.3900001 -0.59,19.7500001 -0.28,7.16 -0.24,8.63 -1.25,21.65 z"
     id="path22" />
</svg>
